<svg xmlns="http://www.w3.org/2000/svg" class="img-fluid mover" viewBox="0 0 7559 7781"><defs><linearGradient id="a" x2="7559" y1="5748" y2="5748" gradientTransform="matrix(1 0 0-1 0 8491)" gradientUnits="userSpaceOnUse"><stop offset="0" stop-color="#c3f6ee"/><stop offset=".4" stop-color="#c6ebfd"/></linearGradient></defs><g data-name="Layer 2"><g data-name="Layer 1"><g data-name="Layer 1-2"><path d="M2892 5202h1275a264 264 0 01-264 264h-747a264 264 0 01-264-264" fill="#ecf2fa"/><path d="M4173 5224a264 264 0 01-140 217 255 255 0 01-49 17v-2a109 109 0 00-100-145l-961-28a260 260 0 01-12-60 150 150 0 00 21 2h336v23h70v-23h180l-5 12H3780v-12h373a145 145 0 00 20-1" fill="#2eca8b"/><path d="M3063 5237h24v211h-24" fill="#274b5b"/><path d="M3080 5237h24v182H3080zm147 0h24v182h-24zm294 0h24v182h-24zm147 0h24v182h-24zm147 0h24v182h-24" fill="#274b5b" opacity=".2" style="isolation:isolate"/><path d="M3768 5237h24v182h-24zm-141 0h24v182h-24zm-147 0h24v182H3480zm-147 0h24v182h-24zm-147 0h24v182h-24zm-147 0h24v182h-24" fill="#fff" opacity=".3" style="isolation:isolate"/><path d="M3374 5237h24v182h-24" fill="#274b5b" opacity=".2" style="isolation:isolate"/><path d="M3208 5237h24v211h-24zm146 0h24v211h-24zm146 0h24v211H3500zm292 0h24v211h-24zm146 0h24v211h-24zm-292 0h24v211h-24" fill="#274b5b"/><path d="M7456 3245H6017l-7-82h565a103 103 0 00 0-206H5980c-30-141-75-274-146-385-140-220-356-329-570-351s-428 31-639 90c-280 78-610 148-820-110-125-154-175-405-130-624a1592 1592 0 01 43-159H4460a103 103 0 00 0-206h-687a580 580 0 00 7-95 528 528 0 00-196-402 764 764 0 00-359-136c-277-49-563-64-833 31-256-276-616-370-930-239a609 609 0 00-233 165H1840a100 100 0 01 0 200h-720c-46 150-45 326-43 491v56H1370a103 103 0 11 0 206h-287l2 111h673a103 103 0 01 0 206h-670v71c3 167 5 339-38 495-135 482-610 598-867 979h1080a103 103 0 11 0 206H80q-14 37-26 76h764a103 103 0 11 0 206H10a1385 1385 0 00 78 656c174 454 580 685 960 678s745-212 1086-439c259-171 529-363 816-336 293 28 544 277 810 447A1640 1640 0 00 5160 5040c205-67 409-180 560-380 146-193 229-450 270-722h393a100 100 0 10 0-200h-370c7-92 10-185 11-276V3450h1432a103 103 0 00 0-206" fill="url(#a)" opacity=".4" style="isolation:isolate"/><path d="M2669 4950s-480 597-545 1435a37 37 0 01-72 9c-164-500-514-1948 576-2831" fill="#2f55d4"/><path d="M2117 6435a36 36 0 00 14 20 37 37 0 01-55-20c-165-500-514-1948 576-2831v33c-1040 886-698 2304-535 2798" fill="#f17425"/><path d="M2010 6241c-3-232 56-476 134-694a3680 3680 0 01 128-310 1987 1987 0 00 185-935 13140 13140 0 01-15-581c86-107 57-116 174-212l41 1387s-480 598-545 1436a36 36 0 01-14 26" fill="#9084e2" opacity=".8" style="isolation:isolate"/><path d="M2008 5454a20 20 0 11 20-20 20 20 0 01-20 20zm0-29a9 9 0 10 9 9 9 9 0 00-10-9" fill="#274b5b"/><path d="M2008 5472a38 38 0 11 38-38 38 38 0 01-38 38zm0-53a15 15 0 10 14 15 15 15 0 00-14-15" fill="#274b5b" opacity=".2" style="isolation:isolate"/><path d="M2090 4696a20 20 0 11 20-20 20 20 0 01-20 20zm0-29a9 9 0 10 9 9 9 9 0 00-9-9" fill="#274b5b"/><path d="M2090 4714a38 38 0 11 38-38 38 38 0 01-38 38zm0-53a15 15 0 10 15 15 15 15 0 00-15-15" fill="#274b5b" opacity=".2" style="isolation:isolate"/><path d="M4975 4696a20 20 0 11 20-20 20 20 0 01-20 20zm0-29a9 9 0 10 9 9 9 9 0 00-9-9" fill="#274b5b"/><path d="M4975 4714a38 38 0 11 38-38 38 38 0 01-38 38zm0-53a15 15 0 10 15 15 15 15 0 00-15-15" fill="#274b5b" opacity=".2" style="isolation:isolate"/><path d="M4957 4696a20 20 0 11 21-20 20 20 0 01-20 20zm0-29a9 9 0 10 10 9 9 9 0 00-10-9" fill="#274b5b"/><path d="M4957 4714a38 38 0 11 39-38 38 38 0 01-39 38zm0-53a15 15 0 10 15 15 15 15 0 00-15-15" fill="#274b5b" opacity=".2" style="isolation:isolate"/><path d="M2187 4097h24v1927h-24" fill="#274b5b"/><path d="M2211 4050h24v1974h-24" fill="#274b5b" opacity=".2" style="isolation:isolate"/><path d="M2164 4097h24v1927h-24" fill="#fff" opacity=".3" style="isolation:isolate"/><path d="M2322 3844h24v1739h-24" fill="#274b5b"/><path d="M2346 3844h24v1739h-24" fill="#274b5b" opacity=".2" style="isolation:isolate"/><path d="M2299 3844h24v1739h-24" fill="#fff" opacity=".3" style="isolation:isolate"/><path d="M4743 7035a476 476 0 01-476-476v-464h130v464a347 347 0 10 571-265l84-98a476 476 0 01-270 837l-40 2" fill="#70320c" opacity=".2" style="isolation:isolate"/><path d="M4689 6834a288 288 0 01-42-3l19-128a154 154 0 10-70-276l-78-104a283 283 0 11 170 510" fill="#f17425" opacity=".2" style="isolation:isolate"/><circle fill="#f17425" cx="4731" cy="5930" r="94" opacity=".2" style="isolation:isolate"/><path d="M4916 6453a36 36 0 01-14 19 37 37 0 00 55-20c165-500 514-1948-576-2830v33c1040 885 698 2303 535 2798" fill="#fff"/><path d="M4369 5008s480 598 545 1436a37 37 0 00 72 9C5150 5952 5499 4504 4410 3620" fill="#2f55d4"/><path d="M5029 6300c2-232-57-476-135-694-40-112-84-216-128-310a1987 1987 0 01-186-934 13140 13140 0 00 16-582c-87-107-57-116-175-212L4380 4955s480 598 545 1436a36 36 0 00 14 26" fill="#9084e2" opacity=".8" style="isolation:isolate"/><path d="M5028 5460a20 20 0 11 20-20 20 20 0 01-20 20zm0-30a9 9 0 10 9 10 9 9 0 00-10-10" fill="#274b5b"/><path d="M5028 5478a38 38 0 11 38-38 38 38 0 01-38 38zm0-53a15 15 0 10 15 15 15 15 0 00-15-15" fill="#274b5b" opacity=".2" style="isolation:isolate"/><path d="M4825 4091h24v1986h-24" fill="#274b5b"/><path d="M4802 4085h24v1827h-24" fill="#274b5b" opacity=".2" style="isolation:isolate"/><path d="M4849 4150h24v1927h-24" fill="#fff" opacity=".3" style="isolation:isolate"/><path d="M4690 3897h24v1739H4690" fill="#274b5b"/><path d="M4667 3897h24v1680h-24" fill="#274b5b" opacity=".2" style="isolation:isolate"/><path d="M4714 3897h24v1739h-24" fill="#fff" opacity=".3" style="isolation:isolate"/><path d="M4951 6481a84 84 0 01-10 0 80 80 0 01-71-75 2840 2840 0 00-535-1412l68-55c5 6 125 156 253 412a2860 2860 0 01 299 1013c80-252 196-716 169-1222C5090 4500 4840 3986 4382 3614l56-68a2022 2022 0 01 585 760c110 250 173 529 190 830a3670 3670 0 01-185 1290 80 80 0 01-77 55" fill="#274b5b"/><path d="M935 7781H518a65 65 0 11 0-130h418a65 65 0 11 0 130" fill="#f17425" opacity=".2" style="isolation:isolate"/><path d="M2775 7205a540 540 0 01-350-952l83 98a411 411 0 10 678 314V5648h130v1017a540 540 0 01-540 540" fill="#70320c" opacity=".2" style="isolation:isolate"/><path d="M3764 7452a303 303 0 01-302-302V6148h130V7150a173 173 0 10 285-132l84-99a303 303 0 01-172 533h-25zM3450 5654h129v311H3450" fill="#f17425" opacity=".2" style="isolation:isolate"/><path d="M2808 6945a287 287 0 01-41-3l18-128a154 154 0 10-70-275l-77-104a283 283 0 11 170 510zm1089-174a206 206 0 11 206-206 206 206 0 01-206 206zm0-282a76 76 0 10 76 76 77 77 0 00-76-76zM2880 6248a206 206 0 11 206-206 206 206 0 01-206 206zm0-282a76 76 0 10 76 76 77 77 0 00-76-76zm2791 282a206 206 0 11 206-206 206 206 0 01-206 206zm0-282a76 76 0 10 77 76 77 77 0 00-77-76" fill="#f17425" opacity=".2" style="isolation:isolate"/><circle fill="#f17425" cx="1647" cy="6471" r="47" opacity=".2" style="isolation:isolate"/><circle fill="#f17425" cx="4267" cy="7276" r="47" opacity=".2" style="isolation:isolate"/><path d="M5848 7500h-130a347 347 0 00-346-348h-88v-129h88a476 476 0 01 476 476" fill="#70320c" opacity=".2" style="isolation:isolate"/><path d="M1141 7524h-130a937 937 0 01 937-936h186v130h-186a807 807 0 00-807 806zM6780 7500h-129a1000 1000 0 00-999-999h-228v-129h228A1130 1130 0 01 6780 7499" fill="#f17425" opacity=".2" style="isolation:isolate"/><path d="M1776 7500h-130a476 476 0 01 476-477h89v130h-89a347 347 0 00-346 346" fill="#70320c" opacity=".2" style="isolation:isolate"/><path d="M6070 7781H1154a65 65 0 11 0-130H6070a65 65 0 01 0 130zm-5780 0a60 60 0 01-13-1 68 68 0 01-13-4 72 72 0 01-10-6 68 68 0 01-10-8 64 64 0 01-15-20 68 68 0 01-3-13 62 62 0 01 0-25 68 68 0 01 3-12 73 73 0 01 6-11 65 65 0 01 18-18 72 72 0 01 11-6 68 68 0 01 12-4 63 63 0 01 26 0 68 68 0 01 12 4 72 72 0 01 11 6 65 65 0 01 18 18 72 72 0 01 6 10 74 74 0 01 3 13 65 65 0 01 0 25 74 74 0 01-3 12 72 72 0 01-6 11 64 64 0 01-8 10 68 68 0 01-10 9 72 72 0 01-11 5 68 68 0 01-13 4 60 60 0 01-12 1zm6439 0h-417a65 65 0 11 0-130h417a65 65 0 01 0 130zm229 0a60 60 0 01-13-1 68 68 0 01-12-4 72 72 0 01-10-6 68 68 0 01-10-8 64 64 0 01-9-10 72 72 0 01-6-10 74 74 0 01-4-13 65 65 0 01 0-25 74 74 0 01 4-12 72 72 0 01 6-12 65 65 0 01 18-18 72 72 0 01 11-5 68 68 0 01 12-4 63 63 0 01 25 0 68 68 0 01 13 4 72 72 0 01 10 5 65 65 0 01 19 18 73 73 0 01 6 12 68 68 0 01 3 12 62 62 0 01 0 25 68 68 0 01-3 12 73 73 0 01-6 11 64 64 0 01-8 10 68 68 0 01-10 8 72 72 0 01-12 6 68 68 0 01-12 4 60 60 0 01-12 1" fill="#f17425" opacity=".2" style="isolation:isolate"/><path d="M2081 6475a80 80 0 01-76-56A3667 3667 0 01 1820 5131a2370 2370 0 01 190-830 2022 2022 0 01 584-761l56 68c-458 372-708 886-742 1528-27 506 90 970 170 1222a2877 2877 0 01 550-1425l70 56A2774 2774 0 00 2162 6400a80 80 0 01-71 74 85 85 0 01-10 0" fill="#274b5b"/><path d="M3623 95a130 130 0 00-196 0C3145 415 2350 1441 2350 2876c0 1405 305 2036 424 2229 25 40 80 67 140 67h1221c60 0 116-26 141-67C4395 4912 4700 4280 4700 2876c0-1435-795-2462-1077-2781" fill="#2f55d4"/><path d="M3509 1283h24v3878h-24" fill="#274b5b"/><path d="M3486 1283h24v3878h-24" fill="#274b5b" opacity=".2" style="isolation:isolate"/><path d="M3533 1283h24v3878h-24" fill="#fff" opacity=".3" style="isolation:isolate"/><path d="M4302 1248h-1580a5179 5179 0 01 339-672l33-55C3320 184 3492 0 3492 0s240 255 523 717l4 7c93 153 190 328 283 523" fill="#ecf2fa"/><path d="m4290 1230-86-12c-143-209-537-634-1081-693 10-19 50-57 60-75 77-130 149-215 207-297a170 170 0 01 276-4A4612 4612 0 01 4000 664c1 2 14 4 16 7 84 153 240 248 274 560" fill="#2eca8b"/><path d="M2960 1097a30 30 0 01-26-43c29-53 60-106 92-157 30-50 60-100 88-151a30 30 0 01 52 28c-29 52-60 104-90 154s-63 102-90 154a30 30 0 01-26 15" fill="#fff"/><g fill="#426270" opacity=".4"><path d="M3818 2310c38-60 65-112 69-110s-18 56-56 118-78 107-81 104 30-50 68-111"/><ellipse cx="3879" cy="2362" rx="87" ry="8" transform="rotate(-59.3 388 236.2)"/><path d="M3833 2351c55 23 101 38 100 42s-50-5-106-28-97-50-95-53 46 17 101 40zm52-15c50 24 92 39 91 43s-46-5-97-30-87-52-85-55 41 20 91 42"/></g><path d="M3146 5202h-214c-60 0-116-27-141-68-119-193-424-825-424-2234 0-1379 730-2382 1040-2744C3130 485 2530 1356 2530 2728l352-495c-7 20-720 2090 265 2969" fill="#f17425"/><path d="M3002 5175h-58c-61 0-116-26-141-67-120-193-424-826-424-2234 0-1380 730-2382 1040-2745A3680 3680 0 00 2800 1210a4080 4080 0 00-363 1664c0 1409 304 2041 423 2234 26 42 80 68 141 68" fill="#fff"/><path d="M3868 5172h214c60 0 116-26 141-67 119-192 423-823 423-2227 0-1375-730-2376-1040-2737A3912 3912 0 01 4550 2706l-305-493c7 19 607 2084-377 2960" fill="#9084e2" opacity=".8" style="isolation:isolate"/><path d="M2776 1712a1180 1180 0 01 36-116 870 870 0 01 40-91c26-50 49-79 58-75s5 40-8 93c-6 27-14 59-24 93l-30 114-28 114-24 94c-14 53-27 86-37 85s-17-36-15-93a868 868 0 01 8-99 1180 1180 0 01 24-120" fill="#fff" opacity=".9"/><ellipse fill="#fff" cx="2713" cy="2162" opacity=".9" rx="88" ry="38" transform="rotate(-79.8 271.3 216.2)"/><g fill="#426270" opacity=".2"><path d="M3344 367c48-35 94-66 127-87s54-33 56-31-19 16-50 40l-125 90-124 91c-32 23-52 37-53 35s16-18 46-43 74-60 123-95"/><path d="M3361 424c108-40 194-75 196-71 0 2-20 13-54 28s-83 37-136 57-103 38-140 49-58 16-59 14c-1-4 86-36 193-77"/></g><path d="M3418 1956a20 20 0 11 20-21 20 20 0 01-20 20zm0-30a9 9 0 10 9 9 9 9 0 00-9-9" fill="#274b5b"/><path d="M3418 1973a38 38 0 11 38-38 38 38 0 01-38 38zm0-53a15 15 0 10 15 15 15 15 0 00-15-15" fill="#274b5b" opacity=".2" style="isolation:isolate"/><path d="M3418 1553a20 20 0 11 20-20 20 20 0 01-20 20zm0-30a9 9 0 10 9 10 9 9 0 00-9-10" fill="#274b5b"/><path d="M3418 1570a38 38 0 11 38-38 38 38 0 01-38 39zm0-52a15 15 0 10 15 14 15 15 0 00-15-14" fill="#274b5b" opacity=".2" style="isolation:isolate"/><path d="M3624 1682a20 20 0 11 20-20 20 20 0 01-20 20zm0-30a9 9 0 10 8 10 9 9 0 00-8-10" fill="#274b5b"/><path d="M3624 1700a38 38 0 11 38-38 38 38 0 01-38 38zm0-53a15 15 0 10 14 15 15 15 0 00-14-15" fill="#274b5b" opacity=".2" style="isolation:isolate"/><path d="M3624 3145a20 20 0 11 20-20 20 20 0 01-20 20zm0-30a9 9 0 10 8 10 9 9 0 00-8-9" fill="#274b5b"/><path d="M3624 3163a38 38 0 11 38-38 38 38 0 01-38 38zm0-53a15 15 0 10 14 15 15 15 0 00-14-15" fill="#274b5b" opacity=".2" style="isolation:isolate"/><path d="M3630 3445a20 20 0 11 20-20 20 20 0 01-20 20zm0-30a9 9 0 10 9 10 9 9 0 00-9-10" fill="#274b5b"/><path d="M3630 3463a38 38 0 11 38-39 38 38 0 01-38 39zm0-53a15 15 0 10 15 14 15 15 0 00-15-14" fill="#274b5b" opacity=".2" style="isolation:isolate"/><path d="M3400 3063a20 20 0 11 20-20 20 20 0 01-20 20zm0-30a9 9 0 10 9 10 9 9 0 00-9-10" fill="#274b5b"/><path d="M3400 3080a38 38 0 11 38-38 38 38 0 01-38 39zm0-52a15 15 0 10 15 14 15 15 0 00-15-14" fill="#274b5b" opacity=".2" style="isolation:isolate"/><path d="M3400 3363a20 20 0 11 20-20 20 20 0 01-20 20zm0-30a9 9 0 10 9 10 9 9 0 00-9-10" fill="#274b5b"/><path d="M3400 3380a38 38 0 11 38-38 38 38 0 01-38 38zm0-53a15 15 0 10 15 15 15 15 0 00-15-14" fill="#274b5b" opacity=".2" style="isolation:isolate"/><path d="M3418 2358a20 20 0 11 20-20 20 20 0 01-20 20zm0-30a9 9 0 10 9 10 9 9 0 00-9-10" fill="#274b5b"/><path d="M3418 2376a38 38 0 11 38-39 38 38 0 01-38 39zm0-53a15 15 0 10 15 14 15 15 0 00-15-14" fill="#274b5b" opacity=".2" style="isolation:isolate"/><path d="M3888 1130a20 20 0 11 20-20 20 20 0 01-20 20zm0-30a9 9 0 10 9 10 9 9 0 00-9-10" fill="#274b5b"/><path d="M3888 1148a38 38 0 11 38-39 38 38 0 01-38 39zm0-53a15 15 0 10 15 14 15 15 0 00-15-14" fill="#274b5b" opacity=".2" style="isolation:isolate"/><path d="M3148 1130a20 20 0 11 20-20 20 20 0 01-20 20zm0-30a9 9 0 10 8 10 9 9 0 00-8-10" fill="#274b5b"/><path d="M3148 1148a38 38 0 11 38-39 38 38 0 01-38 39zm0-53a15 15 0 10 14 14 15 15 0 00-14-14" fill="#274b5b" opacity=".2" style="isolation:isolate"/><path d="M3518 1130a20 20 0 11 20-20 20 20 0 01-20 20zm0-30a9 9 0 10 9 10 9 9 0 00-10-10" fill="#274b5b"/><path d="M3518 1148a38 38 0 11 38-39 38 38 0 01-38 39zm0-53a15 15 0 10 15 14 15 15 0 00-15-14" fill="#274b5b" opacity=".2" style="isolation:isolate"/><path d="M3418 3810a20 20 0 11 20-21 20 20 0 01-20 20zm0-30a9 9 0 10 9 9 9 9 0 00-9-9" fill="#274b5b"/><path d="M3418 3827a38 38 0 11 38-38 38 38 0 01-38 38zm0-53a15 15 0 10 15 15 15 15 0 00-15-15" fill="#274b5b" opacity=".2" style="isolation:isolate"/><path d="M3418 4240a20 20 0 11 20-20 20 20 0 01-20 20zm0-30a9 9 0 10 9 10 9 9 0 00-9-10" fill="#274b5b"/><path d="M3418 4258a38 38 0 11 38-38 38 38 0 01-38 38zm0-53a15 15 0 10 15 15 15 15 0 00-15-15" fill="#274b5b" opacity=".2" style="isolation:isolate"/><path d="M3418 4671a20 20 0 11 20-20 20 20 0 01-20 20zm0-30a9 9 0 10 9 10 9 9 0 00-9-10" fill="#274b5b"/><path d="M3418 4689a38 38 0 11 38-38 38 38 0 01-38 38zm0-53a15 15 0 10 15 14 15 15 0 00-15-14" fill="#274b5b" opacity=".2" style="isolation:isolate"/><path d="M3418 5102a20 20 0 11 20-20 20 20 0 01-20 20zm0-30a9 9 0 10 9 10 9 9 0 00-9-10" fill="#274b5b"/><path d="M3418 5120a38 38 0 11 38-38 38 38 0 01-38 38zm0-53a15 15 0 10 15 15 15 15 0 00-15-15" fill="#274b5b" opacity=".2" style="isolation:isolate"/><circle fill="#5c7869" cx="3553" cy="2455" r="496" opacity=".6" style="isolation:isolate"/><circle fill="#94e0f7" cx="3559" cy="2273" r="496"/><path d="M3553 2740a432 432 0 11 432-432 432 432 0 01-432 432zm0-834a403 403 0 10 403 402 403 403 0 00-403-402" fill="#274b5b" opacity=".2" style="isolation:isolate"/><path d="m3725 1830-283 952a494 494 0 01-196-105l258-867a498 498 0 01 221 20zm158 86-262 880a485 485 0 01-50 3 495 495 0 01-60-4l279-938a497 497 0 01 93 60" fill="#fff"/><path d="M3204 2413a12 12 0 01-12-10A476 476 0 01 3250 2090c30-53 67-85 108-94a12 12 0 11 5 23c-34 8-65 36-93 83a452 452 0 00-55 296 12 12 0 01-10 14" fill="#fff" opacity=".8" style="isolation:isolate"/><path d="M3894 2340a20 20 0 11 20-20 20 20 0 01-20 20zm0-30a9 9 0 10 9 10 9 9 0 00-10-9" fill="#274b5b"/><path d="M3894 2358a38 38 0 11 38-38 38 38 0 01-38 38zm0-53a15 15 0 10 15 15 15 15 0 00-15-15" fill="#274b5b" opacity=".2" style="isolation:isolate"/><path d="M3553 2866a558 558 0 11 558-558 559 559 0 01-558 558zm0-993a435 435 0 10 435 435 435 435 0 00-435-435" fill="#274b5b"/><path d="M3238 5149V4290a1150 1150 0 01 306-782 1150 1150 0 01 300 776v863" fill="#ecf2fa"/><path d="M3586 3624a1120 1120 0 00-270 730v842h-71v-843a1119 1119 0 01 306-768q18 19 34 39" fill="#fff"/><path d="M3785 4337v847h-243c226-454 154-1067 109-1380a1119 1119 0 01 134 533" fill="#2eca8b"/><g fill="#426270" opacity=".4"><path d="M3001 3627c38-61 65-113 70-111s-19 56-57 119-78 106-80 103 30-50 67-111"/><ellipse cx="3055" cy="3662" rx="87" ry="8" transform="rotate(-59.6 305.5 366.2)"/><path d="M3016 3667c55 23 102 38 100 42s-50-5-106-28-97-50-95-53 46 17 101 40zm53-14c50 23 92 38 90 42s-46-5-97-29-87-53-85-56 42 20 92 43"/></g><path d="M3424 4085a20 20 0 11 20-20 20 20 0 01-20 20zm0-29a9 9 0 10 9 9 9 9 0 00-10-9" fill="#274b5b"/><path d="M3424 4103a38 38 0 11 38-38 38 38 0 01-38 38zm0-53a15 15 0 10 15 15 15 15 0 00-15-15" fill="#274b5b" opacity=".2" style="isolation:isolate"/><path d="M3424 4943a20 20 0 11 20-20 20 20 0 01-20 20zm0-30a9 9 0 10 9 10 9 9 0 00-10-10" fill="#274b5b"/><path d="M3424 4960a38 38 0 11 38-37 38 38 0 01-38 38zm0-52a15 15 0 10 15 15 15 15 0 00-15-15" fill="#274b5b" opacity=".2" style="isolation:isolate"/><path d="M3424 4514a20 20 0 11 20-20 20 20 0 01-20 20zm0-29a9 9 0 10 9 9 9 9 0 00-10-9" fill="#274b5b"/><path d="M3424 4532a38 38 0 11 38-38 38 38 0 01-38 38zm0-53a15 15 0 10 15 15 15 15 0 00-15-15" fill="#274b5b" opacity=".2" style="isolation:isolate"/><path d="M3612 4085a20 20 0 11 20-20 20 20 0 01-20 20zm0-29a9 9 0 10 9 9 9 9 0 00-10-9" fill="#274b5b"/><path d="M3612 4103a38 38 0 11 38-38 38 38 0 01-38 38zm0-53a15 15 0 10 15 15 15 15 0 00-15-15" fill="#274b5b" opacity=".2" style="isolation:isolate"/><path d="M3612 4943a20 20 0 11 20-20 20 20 0 01-20 20zm0-30a9 9 0 10 9 10 9 9 0 00-10-10" fill="#274b5b"/><path d="M3612 4960a38 38 0 11 38-37 38 38 0 01-38 38zm0-52a15 15 0 10 15 15 15 15 0 00-15-15" fill="#274b5b" opacity=".2" style="isolation:isolate"/><path d="M3612 4514a20 20 0 11 20-20 20 20 0 01-20 20zm0-29a9 9 0 10 9 9 9 9 0 00-10-9" fill="#274b5b"/><path d="M3612 4532a38 38 0 11 38-38 38 38 0 01-38 38zm0-53a15 15 0 10 15 15 15 15 0 00-15-15" fill="#274b5b" opacity=".2" style="isolation:isolate"/><path d="M3509 3568h24V5160h-24" fill="#274b5b"/><path d="M3491 3627h24v1516h-24" fill="#274b5b" opacity=".2" style="isolation:isolate"/><path d="M3538 3627h24v1510h-24" fill="#fff" opacity=".8" style="isolation:isolate"/><path d="M3891 5516h-746a309 309 0 01-309-308v-44H4200v44a309 309 0 01-308 308zm-962-264a220 220 0 00 216 176H3890a220 220 0 00 216-176" fill="#274b5b"/><path d="M4145 1590a160 160 0 01 192 116l37 157a160 160 0 01-117 192 160 160 0 01-192-117l-38-157a160 160 0 01 118-192" fill="#fff" opacity=".1" style="isolation:isolate"/><path d="M4004 1520a160 160 0 01 220 43 160 160 0 01-42 220 160 160 0 01-221-42 160 160 0 01 43-221" fill="#fff" opacity=".1" style="isolation:isolate"/><g fill="#426270" opacity=".4"><path d="M4135 2728c38-61 65-113 70-112s-18 57-57 120-78 106-80 103 30-50 67-111"/><ellipse cx="4189" cy="2763" rx="87" ry="8" transform="rotate(-59.6 418.9 276.3)"/><path d="M4150 2769c55 22 101 37 100 41s-50-5-106-28-97-50-95-53 46 17 101 40zm53-15c50 23 92 38 90 42s-46-5-97-29-87-53-85-56 41 19 91 43"/></g><g fill="#426270" opacity=".4"><path d="M3660 918c37-61 64-113 68-111s-17 57-56 119-78 106-80 104 30-50 68-112"/><ellipse cx="3713" cy="953" rx="87" ry="8" transform="rotate(-59.6 371.3 95.3)"/><path d="M3674 959c56 22 102 37 100 42s-50-5-105-28-98-50-96-54 46 18 101 40zm53-15c50 23 92 38 90 42s-45-5-97-29-87-53-84-56 40 20 90 43"/></g><path d="M2742 1198h1469v29H2742" fill="#2eca8b"/><path d="M4342 1305H2701l20-88h1611l10 88" fill="#274b5b"/><path d="M4124 5216H2902c-76 0-144-33-178-88-130-210-430-849-430-2253 0-1376 725-2384 1036-2753a239 239 0 01 366 0c311 370 1036 1377 1036 2753 0 1404-300 2043-430 2253-33 55-102 89-178 89zm-611-5090a150 150 0 00-97 35 151 151 0 00-18 18c-306 362-1016 1349-1016 2696 0 602 56 1127 166 1559a2350 2350 0 00 250 648c18 28 60 46 104 46h1222c44 0 86-18 103-46 55-90 160-292 251-648 110-433 166-957 166-1560 0-1346-710-2333-1016-2695a150 150 0 00-102-53h-13" fill="#274b5b"/><path d="M3259 5162H3170v-843a1158 1158 0 01 317-799l33-34 32 34a1160 1160 0 01 312 793V5160h-88v-847a1071 1071 0 00-257-697 1070 1070 0 00-262 703zm1716-477a20 20 0 11 20-20 20 20 0 01-20 20zm0-30a9 9 0 10 9 10 9 9 0 00-9-10" fill="#274b5b"/><path d="M4975 4702a38 38 0 11 38-38 38 38 0 01-38 38zm0-52a15 15 0 10 15 14 15 15 0 00-15-14" fill="#274b5b" opacity=".2" style="isolation:isolate"/></g></g></g></svg>